<svg width="48" height="48" viewBox="0 0 48 48" fill="none" xmlns="http://www.w3.org/2000/svg">
<g clip-path="url(#clip0_955_4052)">
<path d="M36 30C35.85 30 35.702 30.012 35.555 30.023L29.411 16.058C30.4327 14.9536 31.0001 13.5045 31 12C31 11.2121 30.8448 10.4319 30.5433 9.7039C30.2418 8.97595 29.7998 8.31451 29.2426 7.75736C28.6855 7.20021 28.0241 6.75825 27.2961 6.45672C26.5681 6.15519 25.7879 6 25 6C24.2121 6 23.4319 6.15519 22.7039 6.45672C21.9759 6.75825 21.3145 7.20021 20.7574 7.75736C20.2002 8.31451 19.7583 8.97595 19.4567 9.7039C19.1552 10.4319 19 11.2121 19 12C19 13.104 19.303 14.135 19.824 15.024L13.541 24.207C13.0385 24.0712 12.5205 24.0016 12 24C10.8133 24 9.65328 24.3519 8.66658 25.0112C7.67989 25.6705 6.91085 26.6075 6.45673 27.7039C6.0026 28.8003 5.88378 30.0067 6.11529 31.1705C6.3468 32.3344 6.91825 33.4035 7.75736 34.2426C8.59648 35.0818 9.66558 35.6532 10.8295 35.8847C11.9933 36.1162 13.1997 35.9974 14.2961 35.5433C15.3925 35.0892 16.3295 34.3201 16.9888 33.3334C17.6481 32.3467 18 31.1867 18 30C18.0005 28.7285 17.5943 27.4902 16.841 26.466L22.898 17.614C23.5698 17.8678 24.2818 17.9986 25 18C25.294 18 25.581 17.972 25.864 17.931L31.893 31.634C31.2953 32.1933 30.8188 32.8694 30.4932 33.6204C30.1675 34.3715 29.9997 35.1814 30 36C30 37.1867 30.3519 38.3467 31.0112 39.3334C31.6705 40.3201 32.6075 41.0892 33.7039 41.5433C34.8003 41.9974 36.0067 42.1162 37.1705 41.8847C38.3344 41.6532 39.4035 41.0818 40.2426 40.2426C41.0818 39.4035 41.6532 38.3344 41.8847 37.1705C42.1162 36.0067 41.9974 34.8003 41.5433 33.7039C41.0892 32.6075 40.3201 31.6705 39.3334 31.0112C38.3467 30.3519 37.1867 30 36 30Z" fill="#C2FFC7"/>
</g>
<defs>
<clipPath id="clip0_955_4052">
<rect width="48" height="48" fill="white"/>
</clipPath>
</defs>
</svg>
